<svg width="763" height="1013" viewBox="0 0 763 1013" fill="none" xmlns="http://www.w3.org/2000/svg">
<path d="M-3.33786e-06 381.5C-3.33786e-06 592.197 170.803 763 381.5 763C592.197 763 763 592.197 763 381.5C763 170.803 592.197 0 381.5 0C170.803 0 -3.33786e-06 170.803 -3.33786e-06 381.5Z" fill="#D92828"/>
<path d="M405.371 1000.26C393.666 1016.62 369.334 1016.62 357.629 1000.26L70.1839 598.287C56.2956 578.865 70.1782 551.871 94.0548 551.871H668.945C692.822 551.871 706.704 578.865 692.816 598.287L405.371 1000.26Z" fill="#D92828"/>
<rect width="97.8205" height="436.932" transform="matrix(-1 0 0 1 430.41 159.774)" fill="white"/>
<rect width="97.8205" height="436.932" transform="matrix(-1.19249e-08 -1 -1 1.19249e-08 599.967 427.15)" fill="white"/>
</svg>
